<svg width="895" height="265" viewBox="0 0 895 265" fill="none" xmlns="http://www.w3.org/2000/svg">
<path d="M115.53 0C179.335 0.000239663 231.06 51.8355 231.06 115.777C231.06 141.131 222.925 164.578 209.133 183.648L269 243.644L247.688 265L188.42 205.604C168.537 221.827 143.168 231.555 115.53 231.555C51.7249 231.555 2.88089e-05 179.719 0 115.777C0 51.8353 51.7249 0 115.53 0Z" fill="#0B1F4B"/>
<path d="M214 116C214 171.228 169.9 216 115.5 216C61.1 216 17 171.228 17 116C17 60.7715 61.1 16 115.5 16C169.9 16 214 60.7715 214 116Z" fill="#4F86F7"/>
<path d="M115.5 145C147.809 145 174 164.252 174 188C174 211.748 147.809 231 115.5 231C83.1913 231 57 211.748 57 188C57 164.252 83.1913 145 115.5 145Z" fill="#0B1F4B"/>
<path d="M115 54C136.539 54 154 71.6848 154 93.5C154 115.315 136.539 133 115 133C93.4609 133 76 115.315 76 93.5C76 71.6848 93.4609 54 115 54Z" fill="#0B1F4B"/>
<path d="M280.378 188V57.0909H308.055V111.104H364.241V57.0909H391.855V188H364.241V133.923H308.055V188H280.378Z" fill="#0B1F4B"/>
<path d="M414.163 188V89.8182H441.393V188H414.163ZM427.842 77.1619C423.794 77.1619 420.321 75.8196 417.423 73.1349C414.568 70.4077 413.141 67.1477 413.141 63.3551C413.141 59.6051 414.568 56.3878 417.423 53.7031C420.321 50.9758 423.794 49.6122 427.842 49.6122C431.891 49.6122 435.342 50.9758 438.197 53.7031C441.095 56.3878 442.544 59.6051 442.544 63.3551C442.544 67.1477 441.095 70.4077 438.197 73.1349C435.342 75.8196 431.891 77.1619 427.842 77.1619Z" fill="#0B1F4B"/>
<path d="M463.206 188V89.8182H489.605V106.949H490.628C492.418 100.855 495.422 96.2528 499.641 93.142C503.86 89.9886 508.718 88.4119 514.215 88.4119C515.578 88.4119 517.049 88.4972 518.625 88.6676C520.202 88.8381 521.587 89.0724 522.78 89.3707V113.533C521.502 113.149 519.733 112.808 517.475 112.51C515.216 112.212 513.15 112.062 511.275 112.062C507.269 112.062 503.689 112.936 500.536 114.683C497.425 116.388 494.953 118.774 493.121 121.842C491.331 124.911 490.436 128.447 490.436 132.453V188H463.206Z" fill="#0B1F4B"/>
<path d="M577.033 189.918C566.933 189.918 558.24 187.872 550.953 183.781C543.709 179.648 538.126 173.81 534.206 166.267C530.286 158.682 528.325 149.712 528.325 139.357C528.325 129.257 530.286 120.393 534.206 112.766C538.126 105.138 543.645 99.1932 550.761 94.9318C557.92 90.6705 566.315 88.5398 575.946 88.5398C582.423 88.5398 588.453 89.5838 594.036 91.6719C599.661 93.7173 604.561 96.8068 608.737 100.94C612.956 105.074 616.237 110.273 618.581 116.537C620.925 122.759 622.097 130.045 622.097 138.398V145.876H539.192V129.001H596.464C596.464 125.081 595.612 121.608 593.908 118.582C592.203 115.557 589.838 113.192 586.812 111.487C583.83 109.74 580.357 108.866 576.393 108.866C572.26 108.866 568.595 109.825 565.399 111.743C562.246 113.618 559.774 116.153 557.984 119.349C556.195 122.503 555.278 126.018 555.236 129.896V145.94C555.236 150.798 556.131 154.996 557.92 158.533C559.753 162.07 562.331 164.797 565.655 166.714C568.979 168.632 572.92 169.591 577.48 169.591C580.506 169.591 583.276 169.165 585.79 168.312C588.304 167.46 590.456 166.182 592.246 164.477C594.036 162.773 595.399 160.685 596.337 158.213L621.521 159.875C620.243 165.926 617.622 171.21 613.659 175.727C609.739 180.202 604.668 183.696 598.446 186.21C592.267 188.682 585.129 189.918 577.033 189.918Z" fill="#0B1F4B"/>
<path d="M640.378 57.0909H674.511L710.562 145.045H712.097L748.148 57.0909H782.281V188H755.435V102.794H754.348L720.47 187.361H702.189L668.311 102.474H667.224V188H640.378V57.0909Z" fill="#0B1F4B"/>
<path d="M849.318 189.918C839.218 189.918 830.525 187.872 823.238 183.781C815.994 179.648 810.412 173.81 806.491 166.267C802.571 158.682 800.61 149.712 800.61 139.357C800.61 129.257 802.571 120.393 806.491 112.766C810.412 105.138 815.93 99.1932 823.047 94.9318C830.206 90.6705 838.601 88.5398 848.231 88.5398C854.708 88.5398 860.738 89.5838 866.321 91.6719C871.946 93.7173 876.846 96.8068 881.022 100.94C885.241 105.074 888.522 110.273 890.866 116.537C893.21 122.759 894.382 130.045 894.382 138.398V145.876H811.477V129.001H868.75C868.75 125.081 867.897 121.608 866.193 118.582C864.488 115.557 862.123 113.192 859.098 111.487C856.115 109.74 852.642 108.866 848.679 108.866C844.545 108.866 840.88 109.825 837.684 111.743C834.531 113.618 832.059 116.153 830.27 119.349C828.48 122.503 827.564 126.018 827.521 129.896V145.94C827.521 150.798 828.416 154.996 830.206 158.533C832.038 162.07 834.616 164.797 837.94 166.714C841.264 168.632 845.206 169.591 849.765 169.591C852.791 169.591 855.561 169.165 858.075 168.312C860.589 167.46 862.741 166.182 864.531 164.477C866.321 162.773 867.684 160.685 868.622 158.213L893.806 159.875C892.528 165.926 889.907 171.21 885.944 175.727C882.024 180.202 876.953 183.696 870.731 186.21C864.552 188.682 857.414 189.918 849.318 189.918Z" fill="#0B1F4B"/>
</svg>